 <svg width="16px" height="16px" viewBox="0 0 16 16" version="1.1" xmlns="http://www.w3.org/2000/svg" xmlns:xlink="http://www.w3.org/1999/xlink"> <title>Radio Button</title><desc>Created with Sketch.</desc><defs><polygon id="path-1" points="20 0 540 0 540 298 20 298"></polygon><filter x="-7.8%" y="-11.9%" width="115.6%" height="127.2%" filterUnits="objectBoundingBox" id="filter-2"><feMorphology radius="0.5" operator="dilate" in="SourceAlpha" result="shadowSpreadOuter1"></feMorphology><feOffset dx="0" dy="5" in="shadowSpreadOuter1" result="shadowOffsetOuter1"></feOffset><feGaussianBlur stdDeviation="12.5" in="shadowOffsetOuter1" result="shadowBlurOuter1"></feGaussianBlur><feComposite in="shadowBlurOuter1" in2="SourceAlpha" operator="out" result="shadowBlurOuter1"></feComposite><feColorMatrix values="0 0 0 0 0   0 0 0 0 0   0 0 0 0 0  0 0 0 0.15 0" type="matrix" in="shadowBlurOuter1"></feColorMatrix></filter></defs><g id="5b.-Card---Add-Card" stroke="none" stroke-width="1" fill="none" fill-rule="evenodd"><g id="7.-PW---Add-Card-(CVV-Entered)-&lt;f&gt;" transform="translate(-359.000000, -825.000000)"><g id="Payment-Options" transform="translate(140.000000, 370.000000)"><g id="Payments---Tab" transform="translate(0.000000, 71.000000)"><path d="M799.5,95.5 L799.5,694.5 L0.5,694.5 L0.5,95.5 L405.5,95.5 L405.5,20.5 L779.5,20.5 L779.5,95.5 L799.5,95.5 Z" id="Selected-Tab" stroke="#DFDFDF" fill="#ffffff"></path><g id="Tabs-Bar" transform="translate(20.000000, 115.000000)"><path d="M759.5,559.5 L0.5,559.5 L0.5,0.5 L212.383213,0.5 L759.5,0.5 L759.5,559.5 Z" id="Grey-Box" stroke="#DFDFDF" fill="#f7f7f7"></path><g id="Add-New-Card" transform="translate(179.000000, 242.000000)"><g id="Selected-Box"><use fill="black" fill-opacity="1"></use><use stroke="#c8c8c8" stroke-width="1" fill="#ffffff" fill-rule="evenodd"></use></g><path d="M559.5,297.5 L0.5,297.5 L0.5,0.5 L559.5,0.5 L559.5,297.5 Z" id="Selected-Box" stroke="#dfdfdf" fill="#ffffff"></path><g id="Radio-Button" transform="translate(16.000000, 23.000000)"><circle id="Unselected" stroke="#84C225" stroke-width="1.5" cx="12" cy="12" r="7.25"></circle><circle id="Selected" fill="#222222" cx="12" cy="12" r="3"></circle></g></g></g></g></g></g></g></svg>